<!DOCTYPE svg PUBLIC "-//W3C//DTD SVG 20010904//EN" "http://www.w3.org/TR/2001/REC-SVG-20010904/DTD/svg10.dtd">
<svg version="1.0" xmlns="http://www.w3.org/2000/svg" width="512px" height="512px" viewBox="0 0 5120 5120" preserveAspectRatio="xMidYMid meet">
<g id="layer101" fill="#da4c5c" stroke="none">
 <path d="M2270 4874 c-435 -61 -848 -237 -1180 -502 -268 -214 -504 -505 -645 -797 -175 -360 -243 -681 -232 -1090 10 -374 74 -637 237 -970 86 -177 144 -268 268 -427 203 -259 545 -534 809 -650 27 -11 51 -26 55 -32 5 -6 8 -7 8 -1 0 6 3 5 8 -1 11 -18 192 -81 335 -119 428 -111 826 -111 1254 0 143 38 324 101 335 119 5 6 8 7 8 1 0 -6 3 -5 8 1 4 6 28 21 55 32 243 107 572 363 761 592 59 71 136 176 136 184 0 2 25 44 56 92 261 415 391 967 343 1460 -52 537 -296 1053 -678 1434 -357 356 -777 572 -1296 666 -121 22 -513 27 -645 8z m-253 -1536 c-2 -13 -4 -3 -4 22 0 25 2 35 4 23 2 -13 2 -33 0 -45z m-146 -145 l24 -28 -30 25 c-16 14 -32 26 -34 28 -2 1 0 2 6 2 5 0 20 -12 34 -27z m496 -170 c-20 -2 -52 -2 -70 0 -17 2 0 4 38 4 39 0 53 -2 32 -4z m119 -405 l29 -33 -32 29 c-18 17 -33 31 -33 33 0 8 8 1 36 -29z m581 -280 c-2 -13 -4 -3 -4 22 0 25 2 35 4 23 2 -13 2 -33 0 -45z m-297 17 c13 -14 22 -26 19 -28 -2 -1 -16 10 -31 25 -15 15 -23 28 -19 28 4 0 18 -11 31 -25z m140 -130 c13 -14 22 -26 19 -28 -2 -1 -16 10 -31 25 -15 15 -23 28 -19 28 4 0 18 -11 31 -25z m719 -292 c2 -2 0 -3 -5 -3 -5 0 -22 12 -39 26 l-30 26 35 -23 c19 -12 37 -24 39 -26z"/>
 </g>
<g id="layer102" fill="#f3c51d" stroke="none">
 <path d="M1897 3742 l-38 -38 22 -20 c26 -24 88 -101 73 -92 -13 9 -257 -235 -247 -247 4 -4 3 -5 -3 -2 -6 3 -51 -34 -100 -84 -48 -49 -93 -89 -99 -89 -6 0 -29 18 -50 40 -21 22 -44 40 -51 40 -12 0 -74 -65 -74 -77 0 -10 79 -80 128 -114 23 -17 72 -44 109 -61 59 -28 77 -32 162 -32 53 -1 126 3 162 7 l65 8 0 -168 c0 -137 4 -183 21 -248 34 -132 91 -237 187 -342 162 -178 364 -267 606 -268 63 0 148 4 189 8 l74 8 -7 -33 c-15 -69 -15 -301 0 -357 20 -76 68 -169 110 -214 l35 -38 35 26 c20 15 38 33 41 41 2 7 -10 31 -28 54 l-33 41 119 119 119 119 -24 28 -25 28 28 -25 28 -24 95 96 96 95 -29 21 -30 21 -199 -199 c-109 -110 -202 -200 -206 -200 -10 0 -28 68 -28 105 0 24 16 45 77 107 l78 78 -28 27 -27 27 -51 -49 -51 -50 6 70 c12 118 4 110 118 123 56 7 103 10 106 7 3 -3 -3 -5 -14 -5 -11 0 -40 -20 -64 -45 l-44 -45 27 -28 28 -27 75 77 76 78 61 -21 c67 -23 102 -44 162 -101 22 -21 45 -38 51 -38 5 0 26 16 45 36 l34 36 -58 53 c-67 61 -199 131 -272 144 -47 9 -233 -1 -275 -14 -16 -5 -17 7 -16 177 1 166 -1 190 -23 258 -38 122 -96 223 -179 312 -130 137 -247 212 -397 252 -80 22 -259 31 -370 18 -49 -6 -93 -8 -96 -6 -3 2 -2 27 3 56 17 101 25 229 17 281 -11 71 -82 211 -137 269 -25 26 -48 48 -51 48 -4 0 -24 -17 -44 -38z m107 -256 c9 -30 15 -80 14 -113 -1 -45 -2 -49 -5 -19 l-4 39 -84 -83 -85 -84 22 -23 c12 -13 25 -23 29 -23 4 0 30 23 59 51 28 28 54 48 56 46 3 -3 0 -43 -7 -89 l-12 -85 -62 -12 c-71 -13 -115 -14 -115 -4 0 4 17 24 37 45 36 37 36 38 18 58 -10 11 -23 20 -29 20 -7 0 -41 -29 -76 -65 -35 -36 -73 -65 -83 -65 -21 0 -97 37 -97 48 0 5 401 412 407 412 1 0 9 -24 17 -54z m514 -472 c22 -6 15 -16 -89 -120 l-114 -114 27 -27 27 -27 122 123 c89 91 117 126 107 132 -10 7 -10 9 0 9 13 0 152 -69 152 -76 0 -2 -6 -1 -13 1 -7 3 -72 -55 -147 -130 l-134 -135 27 -28 27 -27 140 140 c117 117 137 141 127 154 -14 19 23 -11 72 -57 l35 -33 -142 -142 -143 -143 26 -24 25 -23 127 124 c71 68 133 132 139 142 10 17 14 14 42 -30 18 -28 32 -54 32 -59 0 -5 -56 -65 -125 -134 l-125 -124 27 -28 27 -28 113 114 c62 62 113 119 114 127 0 18 39 -101 39 -121 0 -9 -40 -56 -90 -105 l-90 -89 27 -28 27 -28 63 62 c48 48 63 69 66 97 3 20 3 -16 0 -79 -2 -63 -6 -131 -9 -151 l-6 -36 -77 -11 c-42 -7 -96 -12 -121 -12 l-44 0 59 60 c49 49 58 63 49 77 -29 46 -40 42 -131 -49 l-88 -86 -60 10 c-33 6 -62 12 -64 15 -3 2 44 53 104 113 91 92 108 113 99 127 -30 48 -38 44 -168 -86 l-124 -124 -49 28 c-26 15 -50 30 -53 32 -2 2 56 64 130 138 l134 134 -24 26 -24 26 -137 -137 c-148 -148 -144 -146 -194 -86 l-28 34 134 134 134 134 -26 26 -27 26 -60 -58 c-33 -33 -93 -92 -134 -132 l-75 -72 -27 50 c-32 60 -42 42 103 185 l106 105 -28 27 -27 28 -105 -105 c-57 -57 -106 -102 -108 -99 -2 2 -9 33 -16 68 l-12 64 158 159 158 158 -50 0 c-48 0 -54 -3 -105 -55 l-54 -54 20 -23 19 -23 -23 19 -23 20 -51 -50 -50 -49 5 94 c3 52 10 98 14 102 24 24 359 33 431 13z"/>
 </g>
<g id="layer103" fill="#f8e898" stroke="none">
 <path d="M1897 3742 l-37 -38 26 -25 c50 -46 92 -115 114 -183 24 -74 24 -130 -1 -311 l-12 -82 -62 -12 c-71 -13 -115 -14 -115 -4 0 4 17 24 37 45 36 37 36 38 18 58 -10 11 -23 20 -29 20 -7 0 -41 -29 -76 -65 -35 -36 -73 -65 -83 -65 -21 0 -97 37 -97 48 0 3 39 45 86 93 l86 86 -28 22 -28 22 -91 -91 c-50 -49 -95 -90 -101 -90 -5 0 -28 18 -49 40 -21 22 -44 40 -51 40 -12 0 -74 -65 -74 -77 0 -10 79 -80 128 -114 23 -17 72 -44 109 -61 59 -28 77 -32 162 -32 53 -1 126 3 162 7 l65 8 0 -168 c0 -137 4 -183 21 -248 34 -132 91 -237 187 -342 162 -178 364 -267 606 -268 63 0 148 4 189 8 l74 8 -7 -33 c-15 -69 -15 -301 0 -357 20 -76 68 -169 110 -214 l35 -38 35 26 c20 15 38 33 41 41 2 7 -10 31 -28 54 l-33 41 119 119 120 120 -25 25 -25 25 -105 -105 c-58 -57 -108 -104 -112 -105 -10 0 -28 68 -28 105 0 24 16 45 77 107 l78 78 -28 27 -27 27 -51 -49 -51 -50 6 70 c12 118 3 110 119 123 141 17 178 15 249 -9 68 -23 103 -44 163 -101 22 -21 45 -38 51 -38 5 0 26 16 45 36 l34 36 -58 53 c-67 61 -199 131 -272 144 -47 9 -233 -1 -275 -14 -16 -5 -17 7 -16 177 1 166 -1 190 -23 258 -38 122 -96 223 -179 312 -130 137 -247 212 -397 252 -80 22 -259 31 -370 18 -49 -6 -93 -8 -96 -6 -3 2 -2 27 3 56 17 101 25 229 17 281 -11 71 -82 211 -137 269 -25 26 -48 48 -51 48 -4 0 -24 -17 -44 -38z m665 -741 c222 -64 407 -249 481 -481 16 -51 21 -91 21 -190 0 -69 -3 -150 -7 -181 l-8 -56 -77 -11 c-42 -7 -97 -12 -122 -12 l-44 0 59 60 c49 49 58 63 49 77 -29 46 -40 42 -131 -49 l-88 -86 -60 10 c-33 6 -62 12 -64 15 -3 2 44 53 104 113 91 92 108 113 99 127 -30 48 -38 44 -168 -86 l-124 -124 -49 28 c-26 15 -50 30 -53 32 -2 2 56 64 130 138 l134 134 -24 26 -24 26 -137 -137 c-148 -148 -144 -146 -194 -86 l-28 34 134 134 134 134 -26 26 -27 26 -60 -58 c-33 -33 -93 -92 -134 -132 l-75 -72 -27 50 c-32 60 -42 42 103 185 l106 105 -28 27 -27 28 -105 -105 c-57 -57 -106 -102 -108 -99 -2 2 -9 33 -16 68 l-12 64 77 78 c43 43 76 80 73 81 -2 2 -14 12 -27 22 l-23 20 -51 -50 -50 -49 5 94 c3 52 10 98 14 102 15 15 175 28 293 23 72 -2 141 -11 182 -23z"/>
 </g>

</svg>